Coordinates
version=1
nRows=17
nColumns=34
inDegrees=yes

Units are S.I. units (second, meters, Newtons, ...)
If the header above contains a line with 'inDegrees', this indicates whether rotational values are in degrees (yes) or radians (no).

endheader
time	pelvis_tilt	pelvis_list	pelvis_rotation	pelvis_tx	pelvis_ty	pelvis_tz	hip_flexion_r	hip_adduction_r	hip_rotation_r	knee_angle_r	ankle_angle_r	subtalar_angle_r	mtp_angle_r	hip_flexion_l	hip_adduction_l	hip_rotation_l	knee_angle_l	ankle_angle_l	subtalar_angle_l	mtp_angle_l	lumbar_extension	lumbar_bending	lumbar_rotation	arm_flex_r	arm_add_r	arm_rot_r	elbow_flex_r	pro_sup_r	arm_flex_l	arm_add_l	arm_rot_l	elbow_flex_l	pro_sup_l
      2.96666670	      9.29973175	     -4.24215567	      2.94929469	      0.39737565	      0.75892442	     -0.26225242	     36.43838416	     -8.52068963	     -6.17951156	      4.04691976	      3.01570643	     -8.09322759	      0.00000000	     29.70257640	      4.19216252	     -0.53960962	     76.81653313	     36.45714292	     -0.36681751	      0.00000000	    -31.40524024	     -0.89709193	     -2.34645513	     91.36511198	      0.64168979	     57.68543504	    123.30542454	    103.00771055	     99.38309484	     -3.18540441	     70.51821939	    123.50863407	     90.51288889
      2.98333330	      8.99119933	     -4.13645946	      2.81983451	      0.39953775	      0.75546908	     -0.26199742	     36.55754531	     -8.64217793	     -6.28708689	      3.84469566	      2.62716802	     -8.79341154	      0.00000000	     30.74525343	      3.99590924	     -0.50321135	     77.88260624	     36.76286250	      0.80641436	      0.00000000	    -31.15911027	     -1.25719140	     -2.04916110	     91.35889701	      0.27345095	     57.59182097	    123.80055814	    102.76396197	     99.74924055	     -2.29163186	     71.61839585	    123.74272320	     90.30491575
      3.00000000	      9.07613295	     -4.03939721	      2.55680817	      0.39836395	      0.75452877	     -0.26232512	     36.39258282	     -8.70892771	     -6.32008885	      3.92197253	      2.46974651	     -8.88134520	      0.00000000	     31.70645269	      3.82160281	     -0.43587018	     78.93734578	     35.67082645	      1.57985764	      0.00000000	    -31.37880864	     -1.54359811	     -1.99396181	     91.46761916	      0.25749287	     57.45114515	    123.91972951	    102.70391380	     99.81763858	     -2.11719452	     71.75162465	    123.80654946	     90.25423125
      3.01666670	      8.89915438	     -3.81555574	      2.72466795	      0.40031624	      0.75452209	     -0.26248468	     35.79809203	     -9.09909812	     -5.94189919	      3.28102486	      2.66477584	     -8.76235674	      0.00000000	     32.34058818	      4.02100419	     -0.20683186	     79.47871593	     35.05312216	      2.04915893	      0.00000000	    -31.23472364	     -1.67317067	     -1.91733119	     91.38278444	      0.14769201	     57.37418324	    124.04717556	    102.65756529	     99.84928778	     -2.24210965	     71.89550505	    123.76863921	     90.21278383
      3.03333330	      8.82244009	     -3.72859070	      2.83556474	      0.40122695	      0.75180981	     -0.26164138	     35.29388870	     -9.31950582	     -5.68986116	      2.84634477	      3.03066876	     -8.72537808	      0.00000000	     32.98795181	      4.06757855	     -0.05524706	     80.41611718	     34.28984811	      2.62263539	      0.00000000	    -31.11809021	     -1.88314225	     -2.06748331	     91.23134108	      0.10181690	     57.27304155	    124.21897238	    102.59785296	     99.87339326	     -2.31193217	     72.04548987	    123.64423834	     90.15456034
      3.05000000	      8.74566051	     -3.57428646	      3.01672188	      0.40180736	      0.75407639	     -0.26140908	     35.06270302	     -9.57094698	     -5.86144420	      2.94421819	      2.83931757	     -8.72469184	      0.00000000	     33.09082941	      4.17112202	      0.00697093	     80.56082121	     33.25582372	      3.26322417	      0.00000000	    -31.12271570	     -1.97778456	     -1.97630543	     90.93450853	      0.19364383	     57.25829069	    124.30417179	    102.54370406	     99.67894203	     -2.25115521	     72.29258168	    123.62235223	     90.09715179
      3.06666670	      8.73640807	     -3.52880894	      3.16842566	      0.40289651	      0.75409921	     -0.26103389	     34.55036778	     -9.69209293	     -5.84057562	      2.49801873	      2.81252907	     -8.84128419	      0.00000000	     32.89472881	      4.17524286	      0.12483293	     80.44798762	     32.73865200	      3.75709805	      0.00000000	    -31.00395283	     -2.07381035	     -1.90906750	     90.40976181	      0.14813761	     57.32028170	    124.35652822	    102.47387608	     99.36106517	     -2.25799438	     72.55330337	    123.63803392	     90.01641444
      3.08333330	      8.65757262	     -3.50215025	      3.25669142	      0.40215255	      0.75132504	     -0.26178730	     34.23151134	     -9.93947591	     -5.40682777	      2.27139471	      2.81047101	     -8.75288111	      0.00000000	     33.51692997	      4.25587676	      0.25039402	     80.67647041	     33.57027498	      3.66633609	      0.00000000	    -31.12967397	     -2.08865365	     -1.89454133	     90.35462060	      0.10878641	     57.23507293	    124.25160483	    102.42790073	     99.49851079	     -2.15893662	     72.56690375	    123.55220202	     89.96045725
      3.10000000	      8.59215604	     -3.53010821	      3.14583638	      0.40139440	      0.75286888	     -0.26211465	     34.02639220	     -9.92778506	     -5.33286477	      2.19709914	      2.30949690	     -8.71134481	      0.00000000	     33.83754923	      4.14205698	      0.05711554	     80.77529699	     33.93243027	      3.42127293	      0.00000000	    -31.22316354	     -2.08355737	     -1.72650736	     90.19604329	      0.02747778	     57.12157263	    124.08176412	    102.35327043	     99.53562486	     -2.35678545	     72.77650835	    123.10328227	     89.87564728
      3.11666670	      8.37061824	     -3.67918306	      3.20028934	      0.40158634	      0.75218398	     -0.26148157	     34.07280562	     -9.84619190	     -5.13941854	      2.28183338	      2.13079284	     -9.32506230	      0.00000000	     34.22835096	      4.05168634	      0.21077720	     80.70180013	     34.14568678	      2.88904516	      0.00000000	    -31.14419281	     -1.99943195	     -1.47411378	     90.02592134	     -0.10584450	     56.78119700	    123.65509207	    102.13740393	     99.74623620	     -1.85825326	     73.37091703	    122.53598843	     89.64822604
      3.13333330	      8.10403628	     -3.83561169	      3.24560418	      0.40365843	      0.75026495	     -0.26049149	     34.03559628	     -9.66551538	     -4.77400538	      2.31779005	      2.09013311	     -9.34765002	      0.00000000	     34.39471119	      3.88799908	      0.44309465	     80.72628199	     34.26899133	      2.74767711	      0.00000000	    -31.05670975	     -1.95755609	     -1.32906113	     90.15006202	     -0.02651064	     56.71337695	    123.73883540	    102.07480182	     99.87171769	     -1.60388335	     73.34867925	    122.66456777	     89.58148250
      3.15000000	      7.91031430	     -3.83610850	      2.96411688	      0.40337463	      0.75207301	     -0.26107669	     34.08380462	     -9.48620567	     -5.29742406	      2.22467368	      1.20730185	     -9.70220460	      0.00000000	     34.40643533	      3.90510173	      0.45281527	     80.38438274	     33.97155951	      2.94342390	      0.00000000	    -30.94054523	     -2.06663379	     -0.86171078	     90.11628704	     -0.19560562	     56.64637994	    123.80158496	    101.98497649	     99.88366567	     -1.35204185	     73.40120315	    123.13915947	     89.49151261
      3.16666670	      7.76811427	     -3.71590323	      3.03088512	      0.40395100	      0.75583627	     -0.26168672	     33.51245032	     -9.57837561	     -5.43977280	      1.11190012	      0.73108133	     -9.94897059	      0.00000000	     34.15062829	      4.24266583	      0.68490957	     79.62283662	     33.74773667	      3.04817514	      0.00000000	    -30.81273709	     -2.14969663	     -0.67456199	     89.78737152	     -0.42930696	     56.67957911	    123.77011759	    101.89799750	     99.59388831	     -1.04424326	     73.58824345	    123.47988538	     89.40904373
      3.18333330	      7.70523826	     -3.93908485	      3.09246061	      0.40642611	      0.75055289	     -0.26088657	     33.27827084	     -9.39876036	     -5.28634611	      0.62982535	      0.79890092	    -10.93342953	      0.00000000	     34.14485308	      4.14482849	      1.03654891	     79.78777016	     34.74108266	      2.98757787	      0.00000000	    -30.83580287	     -1.98007157	     -0.62421543	     89.80784804	     -0.32004147	     56.39957679	    123.97222330	    101.72236531	     99.78650688	     -1.34756074	     73.10176200	    123.02209166	     89.20458837
      3.20000000	      7.66969184	     -3.97122128	      2.99933700	      0.40515394	      0.75210348	     -0.26107645	     33.20059885	     -9.34350583	     -5.04809782	      0.25607504	      0.71602726	    -10.87422320	      0.00000000	     34.39128277	      4.21410228	      1.02378776	     80.13820914	     34.88896265	      2.91942035	      0.00000000	    -30.84437864	     -2.01695800	     -0.59785580	     89.84105612	     -0.39196943	     56.39675209	    124.04121463	    101.69194415	     99.92296989	     -1.63029608	     72.94607079	    122.89687827	     89.15500716
      3.21666670	      7.77613153	     -4.16225527	      2.75925235	      0.40535980	      0.75375548	     -0.26125481	     33.11327250	     -9.03399886	     -4.83175165	      0.29354998	      0.71704418	    -10.93082554	      0.00000000	     34.15498711	      4.02211959	      0.98857435	     80.18775440	     34.94569214	      2.59503659	      0.00000000	    -30.89718855	     -1.96626247	     -0.63408410	     89.62443591	     -0.22332681	     56.36410342	    124.16860721	    101.61764860	     99.77552644	     -2.46833039	     72.72968930	    121.90618476	     89.01287150
      3.23333330	      7.68103806	     -4.12972653	      2.74029365	      0.40421766	      0.75450576	     -0.26120085	     33.34349921	     -9.04472610	     -4.89125281	      0.48831581	      0.36297245	    -10.84400792	      0.00000000	     34.03662252	      4.18815945	      1.01538410	     79.69122276	     34.96364439	      2.52275436	      0.00000000	    -30.99590123	     -1.99455862	     -0.65574472	     89.63876896	     -0.23808551	     56.31281965	    124.17689015	    101.58118235	     99.83568816	     -3.08754470	     72.46704725	    121.31224425	     88.92853696
